<?xml version="1.0" standalone="no"?><!DOCTYPE svg PUBLIC "-//W3C//DTD SVG 1.1//EN" "http://www.w3.org/Graphics/SVG/1.1/DTD/svg11.dtd">
<svg t="1560170733050" class="icon" style="" viewBox="0 0 1024 1024" version="1.1" xmlns="http://www.w3.org/2000/svg" p-id="2333" xmlns:xlink="http://www.w3.org/1999/xlink" width="40" height="40">
	<defs>
		<style type="text/css"></style>
	</defs>
	<path d="M942.08 321.536c-1.024-1.024-1.024-3.072-1.024-4.096-10.24-115.712-37.888-187.392-51.2-217.088-4.096-8.192-14.336-10.24-20.48-4.096-25.6 23.552-87.04 79.872-139.264 137.216-4.096 4.096-9.216 5.12-14.336 3.072-34.816-12.288-155.648-36.864-370.688-12.288-4.096 0-8.192-1.024-10.24-3.072-15.36-14.336-71.68-67.584-146.432-138.24-6.144-6.144-15.36-5.12-20.48 2.048-18.432 29.696-70.656 132.096-75.776 200.704 0 1.024 0 2.048-1.024 4.096C77.824 317.44-101.376 669.696 82.944 808.96l2.048 2.048c10.24 7.168 21.504 14.336 33.792 20.48 9.216 5.12 19.456 8.192 29.696 11.264 15.36 7.168 32.768 13.312 50.176 17.408v10.24s-8.192 67.584 62.464 73.728c59.392 5.12 63.488-38.912 63.488-66.56h370.688c0 28.672 4.096 71.68 63.488 66.56 70.656-6.144 62.464-73.728 62.464-73.728v-10.24c32.768-7.168 65.536-15.36 91.136-27.648h1.024c222.208-99.328 44.032-480.256 28.672-510.976zM270.336 658.432c-94.208 0-169.984-76.8-169.984-169.984 0-94.208 76.8-169.984 169.984-169.984S440.32 393.216 440.32 487.424s-75.776 171.008-169.984 171.008z m222.208 65.536c-18.432 0-32.768-24.576-32.768-55.296 0-30.72 14.336-55.296 32.768-55.296 18.432 0 32.768 24.576 32.768 55.296 0 30.72-14.336 55.296-32.768 55.296z m279.552-55.296c-88.064 0-160.768-71.68-160.768-160.768S684.032 348.16 772.096 348.16s160.768 71.68 160.768 160.768-71.68 159.744-160.768 159.744z" fill="#231815" p-id="2334"></path>
	<path d="M203.776 455.68a55.296 32.768 90 1 0 65.536 0 55.296 32.768 90 1 0-65.536 0Z" fill="#231815" p-id="2335"></path>
	<path d="M711.68 476.16a55.296 32.768 90 1 0 65.536 0 55.296 32.768 90 1 0-65.536 0Z" fill="#231815" p-id="2336"></path>
</svg>